<svg width="16" height="16" viewBox="0 0 16 16" fill="none" xmlns="http://www.w3.org/2000/svg">
<rect width="16" height="16" fill="#CBD1F2"/>
<path d="M2.73 7C2.60333 7 2.505 6.97167 2.435 6.915C2.365 6.855 2.31333 6.77667 2.28 6.68C2.25 6.58333 2.23167 6.47333 2.225 6.35C2.22167 6.22667 2.22 6.1 2.22 5.97V5.11H2.165C2.115 5.11 2.07667 5.09167 2.05 5.055C2.02333 5.01833 2.01 4.97167 2.01 4.915C2.01 4.85833 2.02 4.81333 2.04 4.78C2.06333 4.74667 2.105 4.73 2.165 4.73H2.22V4.24C2.22 4.11333 2.24 4.02667 2.28 3.98C2.32333 3.93333 2.38333 3.91 2.46 3.91C2.53667 3.91 2.60167 3.93667 2.655 3.99C2.70833 4.04 2.735 4.12833 2.735 4.255V4.73H2.89C2.95 4.73 2.99167 4.745 3.015 4.775C3.04167 4.80167 3.055 4.83833 3.055 4.885C3.055 4.95167 3.04333 5.00667 3.02 5.05C3 5.09 2.96333 5.11 2.91 5.11H2.735V6.05C2.735 6.23333 2.73833 6.36333 2.745 6.44C2.755 6.51667 2.77833 6.555 2.815 6.555H2.855L2.935 6.54C3.005 6.54 3.05333 6.56167 3.08 6.605C3.10667 6.64833 3.12 6.70333 3.12 6.77C3.12 6.79333 3.11667 6.82 3.11 6.85C3.10333 6.87667 3.08667 6.90167 3.06 6.925C3.03333 6.945 2.99333 6.96333 2.94 6.98C2.89 6.99333 2.82 7 2.73 7ZM4.74199 7C4.68533 7 4.64033 6.985 4.60699 6.955C4.57366 6.92167 4.54866 6.88167 4.53199 6.835C4.51533 6.78833 4.50366 6.73833 4.49699 6.685C4.49366 6.63167 4.49199 6.58333 4.49199 6.54V5.81C4.49199 5.79667 4.49199 5.78167 4.49199 5.765C4.49199 5.74833 4.49033 5.73333 4.48699 5.72C4.48366 5.70333 4.47699 5.69167 4.46699 5.685C4.45699 5.675 4.44366 5.67333 4.42699 5.68L3.89199 5.835C3.86199 5.84167 3.83866 5.84833 3.82199 5.855C3.80866 5.86167 3.80199 5.88167 3.80199 5.915V6.475C3.80199 6.515 3.79866 6.565 3.79199 6.625C3.78533 6.685 3.77199 6.74333 3.75199 6.8C3.73533 6.85333 3.71033 6.9 3.67699 6.94C3.64366 6.98 3.59866 7 3.54199 7C3.47199 7 3.41699 6.98333 3.37699 6.95C3.33699 6.91333 3.30699 6.86833 3.28699 6.815C3.26699 6.76167 3.25366 6.705 3.24699 6.645C3.24366 6.585 3.24199 6.52833 3.24199 6.475V4.29C3.24199 4.20667 3.26533 4.12833 3.31199 4.055C3.36199 3.97833 3.43366 3.94 3.52699 3.94C3.57366 3.94 3.61366 3.95167 3.64699 3.975C3.68366 3.995 3.71366 4.02333 3.73699 4.06C3.76033 4.09333 3.77699 4.13167 3.78699 4.175C3.79699 4.21833 3.80199 4.26 3.80199 4.3V5.305C3.80199 5.32833 3.80533 5.35333 3.81199 5.38C3.81866 5.40333 3.83699 5.41167 3.86699 5.405L4.43699 5.255C4.46699 5.24833 4.48366 5.23667 4.48699 5.22C4.49033 5.20333 4.49199 5.18333 4.49199 5.16V4.3C4.49199 4.26333 4.49366 4.22333 4.49699 4.18C4.50366 4.13667 4.51533 4.09667 4.53199 4.06C4.54866 4.02 4.57199 3.98667 4.60199 3.96C4.63199 3.93333 4.67033 3.92 4.71699 3.92C4.82699 3.92 4.91033 3.96167 4.96699 4.045C5.02366 4.125 5.05199 4.215 5.05199 4.315V6.545C5.05199 6.58833 5.04533 6.63667 5.03199 6.69C5.02199 6.74333 5.00366 6.79333 4.97699 6.84C4.95366 6.88667 4.92199 6.925 4.88199 6.955C4.84533 6.985 4.79866 7 4.74199 7ZM6.175 7.05C6.025 7.05 5.88833 7.015 5.765 6.945C5.645 6.87167 5.54167 6.76833 5.455 6.635C5.36833 6.50167 5.3 6.34333 5.25 6.16C5.20333 5.97333 5.18 5.76667 5.18 5.54C5.18 5.3 5.20667 5.08 5.26 4.88C5.31333 4.67667 5.38667 4.50167 5.48 4.355C5.57667 4.205 5.69 4.09 5.82 4.01C5.95333 3.92667 6.09667 3.885 6.25 3.885C6.36333 3.885 6.46667 3.90667 6.56 3.95C6.65667 3.99333 6.73833 4.055 6.805 4.135C6.87167 4.21167 6.92167 4.30333 6.955 4.41C6.99167 4.51333 7.00667 4.62667 7 4.75C6.99333 4.89333 6.96 5.03333 6.9 5.17C6.84 5.30333 6.76 5.42167 6.66 5.525C6.56 5.62833 6.44333 5.71167 6.31 5.775C6.18 5.835 6.04 5.865 5.89 5.865C5.83333 5.865 5.805 5.88833 5.805 5.935C5.805 6.14833 5.84167 6.30667 5.915 6.41C5.99167 6.51 6.08833 6.56 6.205 6.56C6.29167 6.56 6.36333 6.52833 6.42 6.465C6.48 6.40167 6.51 6.32167 6.51 6.225C6.51 6.145 6.53167 6.08167 6.575 6.035C6.61833 5.985 6.67333 5.96 6.74 5.96C6.81667 5.96 6.87667 5.99167 6.92 6.055C6.96667 6.115 6.99 6.19833 6.99 6.305C6.99 6.405 6.96833 6.50167 6.925 6.595C6.88167 6.685 6.82333 6.76333 6.75 6.83C6.67667 6.89667 6.59 6.95 6.49 6.99C6.39 7.03 6.285 7.05 6.175 7.05ZM5.79 5.425C5.8 5.43833 5.82333 5.445 5.86 5.445C5.94667 5.445 6.03 5.42333 6.11 5.38C6.19 5.33667 6.26 5.28167 6.32 5.215C6.38 5.14833 6.42833 5.07167 6.465 4.985C6.50167 4.89833 6.52 4.81333 6.52 4.73C6.52 4.62333 6.49333 4.535 6.44 4.465C6.39 4.395 6.32667 4.36 6.25 4.36C6.19333 4.36 6.14 4.385 6.09 4.435C6.04333 4.48167 6 4.54167 5.96 4.615C5.92333 4.685 5.89167 4.765 5.865 4.855C5.83833 4.94167 5.81667 5.025 5.8 5.105C5.78667 5.18167 5.77833 5.25 5.775 5.31C5.77167 5.37 5.77667 5.40833 5.79 5.425Z" fill="#2B5594"/>
<path d="M4.32305 12C4.23971 12 4.17305 11.9867 4.12305 11.96C4.07638 11.93 4.03971 11.89 4.01305 11.84C3.98971 11.79 3.97471 11.7317 3.96805 11.665C3.96471 11.595 3.96305 11.5183 3.96305 11.435V9.185C3.96305 9.11167 3.98305 9.04833 4.02305 8.995C4.06305 8.93833 4.13138 8.91 4.22805 8.91C4.27805 8.91 4.31971 8.92 4.35305 8.94C4.38638 8.95667 4.41305 8.97833 4.43305 9.005C4.45305 9.03167 4.46638 9.06 4.47305 9.09C4.48305 9.12 4.48805 9.14667 4.48805 9.17V11.315C4.48805 11.3817 4.49138 11.435 4.49805 11.475C4.50471 11.5117 4.52305 11.53 4.55305 11.53H4.60805C4.65805 11.53 4.69638 11.5533 4.72305 11.6C4.74971 11.6467 4.76305 11.7017 4.76305 11.765C4.76305 11.8517 4.74305 11.9133 4.70305 11.95C4.66305 11.9833 4.60971 12 4.54305 12H4.32305ZM5.21496 9.205C5.12829 9.205 5.05829 9.18 5.00496 9.13C4.95163 9.07667 4.92496 9.00667 4.92496 8.92C4.92496 8.83 4.95163 8.75667 5.00496 8.7C5.06163 8.64333 5.13496 8.615 5.22496 8.615C5.31496 8.615 5.38829 8.64167 5.44496 8.695C5.50163 8.745 5.52996 8.81167 5.52996 8.895C5.52996 8.98167 5.49829 9.055 5.43496 9.115C5.37496 9.175 5.30163 9.205 5.21496 9.205ZM5.20996 12.02C5.12996 12.02 5.06829 12.0033 5.02496 11.97C4.98163 11.9333 4.95996 11.89 4.95996 11.84V9.65C4.95996 9.62 4.96329 9.585 4.96996 9.545C4.97996 9.505 4.99329 9.46833 5.00996 9.435C5.02996 9.40167 5.05496 9.37333 5.08496 9.35C5.11829 9.32667 5.15996 9.315 5.20996 9.315C5.25996 9.315 5.30163 9.325 5.33496 9.345C5.37163 9.365 5.39996 9.39 5.41996 9.42C5.44329 9.45 5.45996 9.48333 5.46996 9.52C5.48329 9.55667 5.48996 9.59167 5.48996 9.625V11.84C5.48996 11.8933 5.46329 11.9367 5.40996 11.97C5.35663 12.0033 5.28996 12.02 5.20996 12.02ZM5.94621 12C5.85288 12 5.78788 11.9633 5.75121 11.89C5.71788 11.8167 5.70121 11.6817 5.70121 11.485V9.345C5.70121 9.20167 5.72288 9.095 5.76621 9.025C5.80954 8.955 5.88788 8.92 6.00121 8.92C6.06454 8.92 6.16121 8.91833 6.29121 8.915C6.42121 8.90833 6.57121 8.905 6.74121 8.905C6.85121 8.905 6.95121 8.925 7.04121 8.965C7.13121 9.005 7.20788 9.06 7.27121 9.13C7.33788 9.2 7.38954 9.28333 7.42621 9.38C7.46288 9.47667 7.48121 9.58167 7.48121 9.695C7.48121 9.82833 7.46288 9.94 7.42621 10.03C7.38954 10.12 7.34288 10.1933 7.28621 10.25C7.22954 10.3033 7.16954 10.345 7.10621 10.375C7.04288 10.4017 6.98288 10.4217 6.92621 10.435C6.86954 10.445 6.82288 10.4533 6.78621 10.46C6.74954 10.4633 6.73121 10.4683 6.73121 10.475C6.73121 10.4817 6.75121 10.485 6.79121 10.485C6.83121 10.485 6.88121 10.4883 6.94121 10.495C7.00121 10.4983 7.06621 10.5117 7.13621 10.535C7.20621 10.555 7.27121 10.59 7.33121 10.64C7.39121 10.69 7.44121 10.76 7.48121 10.85C7.52121 10.9367 7.54121 11.05 7.54121 11.19C7.54121 11.3233 7.51288 11.4417 7.45621 11.545C7.39954 11.645 7.32454 11.7283 7.23121 11.795C7.14121 11.8617 7.03954 11.9133 6.92621 11.95C6.81621 11.9833 6.70621 12 6.59621 12H5.94621ZM6.51621 10.22C6.62954 10.22 6.72288 10.1733 6.79621 10.08C6.87288 9.98333 6.91121 9.86333 6.91121 9.72C6.91121 9.62 6.88788 9.53667 6.84121 9.47C6.79454 9.40333 6.71788 9.37 6.61121 9.37H6.34621C6.28954 9.37 6.25788 9.39 6.25121 9.43C6.24454 9.47 6.24121 9.50667 6.24121 9.54V10.06C6.24121 10.1067 6.24954 10.145 6.26621 10.175C6.28621 10.205 6.30954 10.22 6.33621 10.22H6.51621ZM6.55121 11.545C6.67121 11.545 6.77121 11.515 6.85121 11.455C6.93121 11.3917 6.97121 11.285 6.97121 11.135C6.97121 10.9883 6.92621 10.8883 6.83621 10.835C6.74954 10.7817 6.63454 10.755 6.49121 10.755H6.33621C6.27288 10.755 6.24121 10.8217 6.24121 10.955V11.365C6.24121 11.445 6.24788 11.495 6.26121 11.515C6.27788 11.535 6.31788 11.545 6.38121 11.545H6.55121ZM7.90828 12C7.82495 12 7.76661 11.9717 7.73328 11.915C7.69995 11.8583 7.68328 11.78 7.68328 11.68V9.38C7.68328 9.2 7.70161 9.07667 7.73828 9.01C7.77495 8.94333 7.83661 8.91 7.92328 8.91C7.99995 8.91 8.05995 8.94167 8.10328 9.005C8.14995 9.065 8.17328 9.15333 8.17328 9.27C8.17328 9.30667 8.17328 9.335 8.17328 9.355C8.17328 9.37167 8.17828 9.38 8.18828 9.38C8.19495 9.38 8.19828 9.375 8.19828 9.365C8.20161 9.355 8.20661 9.34333 8.21328 9.33C8.22328 9.30667 8.23661 9.27167 8.25328 9.225C8.27328 9.17833 8.29995 9.13167 8.33328 9.085C8.36995 9.03833 8.41495 8.99833 8.46828 8.965C8.52161 8.92833 8.58495 8.91 8.65828 8.91C8.72495 8.91 8.77828 8.93 8.81828 8.97C8.85828 9.01 8.87828 9.06167 8.87828 9.125C8.87828 9.19167 8.86328 9.255 8.83328 9.315C8.80661 9.37167 8.75995 9.4 8.69328 9.4C8.62661 9.4 8.56328 9.43167 8.50328 9.495C8.44661 9.555 8.39661 9.63333 8.35328 9.73C8.31328 9.82333 8.27995 9.92667 8.25328 10.04C8.22995 10.1533 8.21828 10.2617 8.21828 10.365V11.725C8.21828 11.825 8.18495 11.8967 8.11828 11.94C8.05161 11.98 7.98161 12 7.90828 12ZM9.53609 12.04C9.31276 12.04 9.13776 11.9083 9.01109 11.645C8.88776 11.3817 8.82609 11.015 8.82609 10.545C8.82609 10.4517 8.82943 10.3467 8.83609 10.23C8.84609 10.1133 8.86109 9.995 8.88109 9.875C8.90443 9.75167 8.93609 9.63167 8.97609 9.515C9.01943 9.39833 9.07276 9.295 9.13609 9.205C9.20276 9.11167 9.28109 9.03667 9.37109 8.98C9.46443 8.92333 9.57443 8.895 9.70109 8.895C9.78776 8.895 9.85943 8.91 9.91609 8.94C9.97609 8.96667 10.0244 8.99833 10.0611 9.035C10.0978 9.06833 10.1261 9.1 10.1461 9.13C10.1661 9.15667 10.1811 9.17 10.1911 9.17C10.2011 9.17 10.2078 9.155 10.2111 9.125C10.2144 9.095 10.2228 9.06167 10.2361 9.025C10.2494 8.98833 10.2694 8.955 10.2961 8.925C10.3261 8.895 10.3728 8.88 10.4361 8.88C10.4994 8.88 10.5528 8.895 10.5961 8.925C10.6394 8.955 10.6611 8.99333 10.6611 9.04V10.98C10.6611 11.1167 10.6661 11.2467 10.6761 11.37C10.6861 11.49 10.6911 11.5817 10.6911 11.645C10.6911 11.7617 10.6678 11.8567 10.6211 11.93C10.5778 12.0033 10.5211 12.04 10.4511 12.04C10.3711 12.04 10.3061 11.995 10.2561 11.905C10.2061 11.815 10.1811 11.7 10.1811 11.56C10.1811 11.4733 10.1728 11.43 10.1561 11.43C10.1428 11.43 10.1244 11.4617 10.1011 11.525C10.0778 11.5883 10.0428 11.6583 9.99609 11.735C9.95276 11.8117 9.89443 11.8817 9.82109 11.945C9.74776 12.0083 9.65276 12.04 9.53609 12.04ZM9.65609 11.55C9.70276 11.55 9.75276 11.505 9.80609 11.415C9.85943 11.325 9.90776 11.2117 9.95109 11.075C9.99776 10.935 10.0361 10.785 10.0661 10.625C10.0961 10.4617 10.1111 10.31 10.1111 10.17C10.1111 10.06 10.1011 9.95667 10.0811 9.86C10.0644 9.76 10.0394 9.67333 10.0061 9.6C9.97276 9.52333 9.93443 9.46333 9.89109 9.42C9.85109 9.37667 9.80776 9.355 9.76109 9.355C9.70776 9.355 9.65609 9.385 9.60609 9.445C9.55609 9.50167 9.51276 9.58167 9.47609 9.685C9.44276 9.785 9.41443 9.90333 9.39109 10.04C9.37109 10.1733 9.36109 10.3167 9.36109 10.47C9.36109 10.6067 9.36943 10.74 9.38609 10.87C9.40276 11 9.42443 11.115 9.45109 11.215C9.48109 11.315 9.51276 11.3967 9.54609 11.46C9.58276 11.52 9.61943 11.55 9.65609 11.55ZM11.0821 12C10.9988 12 10.9404 11.9717 10.9071 11.915C10.8738 11.8583 10.8571 11.78 10.8571 11.68V9.38C10.8571 9.2 10.8754 9.07667 10.9121 9.01C10.9488 8.94333 11.0104 8.91 11.0971 8.91C11.1738 8.91 11.2338 8.94167 11.2771 9.005C11.3238 9.065 11.3471 9.15333 11.3471 9.27C11.3471 9.30667 11.3471 9.335 11.3471 9.355C11.3471 9.37167 11.3521 9.38 11.3621 9.38C11.3688 9.38 11.3721 9.375 11.3721 9.365C11.3754 9.355 11.3804 9.34333 11.3871 9.33C11.3971 9.30667 11.4104 9.27167 11.4271 9.225C11.4471 9.17833 11.4738 9.13167 11.5071 9.085C11.5438 9.03833 11.5888 8.99833 11.6421 8.965C11.6954 8.92833 11.7588 8.91 11.8321 8.91C11.8988 8.91 11.9521 8.93 11.9921 8.97C12.0321 9.01 12.0521 9.06167 12.0521 9.125C12.0521 9.19167 12.0371 9.255 12.0071 9.315C11.9804 9.37167 11.9338 9.4 11.8671 9.4C11.8004 9.4 11.7371 9.43167 11.6771 9.495C11.6204 9.555 11.5704 9.63333 11.5271 9.73C11.4871 9.82333 11.4538 9.92667 11.4271 10.04C11.4038 10.1533 11.3921 10.2617 11.3921 10.365V11.725C11.3921 11.825 11.3588 11.8967 11.2921 11.94C11.2254 11.98 11.1554 12 11.0821 12ZM13.0259 12.03C12.9293 12.03 12.8376 12.0167 12.7509 11.99C12.6676 11.96 12.5943 11.92 12.5309 11.87C12.4676 11.82 12.4176 11.76 12.3809 11.69C12.3443 11.6167 12.3259 11.5367 12.3259 11.45C12.3259 11.3733 12.3409 11.3083 12.3709 11.255C12.4043 11.2017 12.4459 11.175 12.4959 11.175C12.5459 11.175 12.5909 11.1883 12.6309 11.215C12.6709 11.2417 12.6909 11.2783 12.6909 11.325C12.6909 11.415 12.7243 11.485 12.7909 11.535C12.8576 11.5817 12.9359 11.605 13.0259 11.605C13.1626 11.605 13.2576 11.5583 13.3109 11.465C13.3643 11.3717 13.3909 11.2283 13.3909 11.035V10.815C13.3909 10.7783 13.3909 10.7367 13.3909 10.69C13.3909 10.64 13.3876 10.615 13.3809 10.615C13.3809 10.615 13.3693 10.6367 13.3459 10.68C13.3259 10.72 13.2926 10.765 13.2459 10.815C13.2026 10.8617 13.1459 10.9067 13.0759 10.95C13.0059 10.99 12.9226 11.01 12.8259 11.01C12.7459 11.01 12.6643 10.9933 12.5809 10.96C12.4976 10.9267 12.4226 10.87 12.3559 10.79C12.2893 10.7067 12.2343 10.5967 12.1909 10.46C12.1476 10.32 12.1259 10.1433 12.1259 9.93V9.13C12.1259 9.07 12.1443 9.01833 12.1809 8.975C12.2176 8.92833 12.2743 8.905 12.3509 8.905C12.4476 8.905 12.5226 8.92667 12.5759 8.97C12.6326 9.01333 12.6609 9.07167 12.6609 9.145V9.98C12.6609 10.1033 12.6659 10.2017 12.6759 10.275C12.6893 10.345 12.7059 10.4 12.7259 10.44C12.7493 10.4767 12.7759 10.5 12.8059 10.51C12.8359 10.52 12.8693 10.525 12.9059 10.525C12.9659 10.525 13.0243 10.5033 13.0809 10.46C13.1376 10.4133 13.1876 10.3533 13.2309 10.28C13.2776 10.2067 13.3143 10.1233 13.3409 10.03C13.3676 9.93667 13.3809 9.84 13.3809 9.74V9.205C13.3809 9.09833 13.4026 9.02 13.4459 8.97C13.4926 8.92 13.5509 8.895 13.6209 8.895C13.6476 8.895 13.6776 8.90167 13.7109 8.915C13.7476 8.925 13.7809 8.945 13.8109 8.975C13.8443 9.00167 13.8709 9.04 13.8909 9.09C13.9143 9.13667 13.9259 9.195 13.9259 9.265V11.12C13.9259 11.4133 13.8459 11.6383 13.6859 11.795C13.5259 11.9517 13.3059 12.03 13.0259 12.03Z" fill="#2B5594"/>
</svg>
