<svg width="277" height="208" viewBox="0 0 277 208" fill="none" xmlns="http://www.w3.org/2000/svg">
<path d="M26 206.5L1 30H21L41.5 165L69.5 91H97L119.5 165L129 30H160.5L129 206.5H108.5L81.5 114L49 206.5H26Z" fill="#653208" stroke="black"/>
<path d="M116 207C120.077 140.751 165.666 97.493 116 1H245.5C285.233 71.3134 285.859 115.866 245.5 207H116Z" fill="#BC8484" stroke="black"/>
<rect x="154" y="43" width="78" height="139" fill="#BC8484"/>
<path d="M164 164C177.067 117.689 177.149 91.4187 164 44H186C190.877 63.7982 192.478 75.4311 192.5 97.5H204C209.275 77.7901 207.092 66.0107 204 44H218.5C230.368 89.7021 229.462 116.152 218.5 164H204C206.111 143.963 209.743 132.738 204 114H192.5C192.984 133.053 192.798 143.807 186 164H164Z" fill="#920000" stroke="black"/>
</svg>
